<?xml version="1.0" encoding="UTF-8"?>
<svg id="Camada_1" data-name="Camada 1" xmlns="http://www.w3.org/2000/svg" viewBox="0 0 747.15 300">
  <defs>
    <style>
      .cls-1 {
        fill: #fff;
      }

      .cls-1, .cls-2 {
        fill-rule: evenodd;
      }

      .cls-2 {
        fill: #1d1d1b;
        opacity: 0;
      }
    </style>
  </defs>
  <path class="cls-1" d="M118.18,57.03c-.82,2.59-2.85,3.77-6.49,3.77-2.91,0-6.39,1.32-7.74,2.94-1.78,2.14-4.31,2.62-9.33,1.77-9.75-1.65-12.19,1.74-8.6,11.92,2.39,6.79,2.38,8.49-.08,13.93-6.53,14.44-7.43,15.5-14.45,17.17-9.5,2.25-9,6.29.98,7.9,10.65,1.71,16.25,5.53,19.48,13.27,3.95,9.46,3.29,15.97-2.87,28.36-14.76,29.66-26.51,62.4-26.51,73.87,0,7.78.81,9.54,6.94,14.99,7.2,6.4,10.82,7.58,12.91,4.2.77-1.25,2.02-1.33,3.41-.2,1.2.97,13.61,2.72,27.56,3.87,31.46,2.6,30.82,3.01,31.38-20.04.34-13.82,1.75-20.55,8.59-41.04,7.13-21.35,8.87-24.84,13.53-27.05,4.18-1.98,7.15-2.09,13.56-.47,14.08,3.55,33.16,2.53,49.54-2.64l14.91-4.71.98-15.72c1.55-24.77.29-23.87,33.17-23.87,19.14,0,28.54-.71,30.1-2.26,1.76-1.76,2.77-1.76,4.52,0,1.29,1.29,7.45,2.26,14.32,2.26,10.47,0,12.18-.5,13.04-3.77.85-3.23,2.57-3.77,12.08-3.77,7.54,0,11.14-.76,11.24-2.36.08-1.3.02-7.6-.13-14.01l-.27-11.65,6.25-.6c6.12-.59,6.26-.8,6.82-10.5l.57-9.9h-6.63c-4.69,0-7.22-1.1-8.64-3.75-1.1-2.06-4.22-4.3-6.92-4.98-3.84-.96-5.67-.25-8.33,3.28l-3.41,4.51-108.03-.38c-106.56-.38-108.06-.44-110.61-4.24-3.26-4.87-5.31-4.9-6.84-.09M88.28,67.77c-2.12,2.12-1.29,4.35,1.62,4.35,1.56,0,2.83-.8,2.83-1.77,0-2.38-2.94-4.08-4.45-2.57M200.43,129.61c-.39,12.07,3.19,20.4,10.42,24.18,7,3.67,2.73,5.4-4.59,1.86-6.21-3.01-18.33-20.15-16.43-23.24,1.41-2.28-3.16-9.4-6.04-9.4-8.43,0-17.55,11.22-17.55,21.6,0,6.53,8.06,15.1,16.6,17.66,9.26,2.77,27.25,2.84,36.98.14,10.6-2.94,18.06-11.02,18.06-19.56,0-15.25-9.9-23.62-27.93-23.62h-9.19l-.34,10.37M75.76,247.44c0,1.04.8,1.89,1.77,1.89s2.3-.85,2.94-1.89-.16-1.89-1.77-1.89-2.94.85-2.94,1.89"/>
  <path class="cls-1" d="M487.74,57.03c-.82,2.59-2.85,3.77-6.49,3.77-2.91,0-6.39,1.32-7.74,2.94-1.78,2.14-4.31,2.62-9.33,1.77-9.75-1.65-12.19,1.74-8.6,11.92,2.39,6.79,2.38,8.49-.08,13.93-6.53,14.44-7.43,15.5-14.45,17.17-9.5,2.25-9,6.29.98,7.9,10.65,1.71,16.25,5.53,19.48,13.27,3.95,9.46,3.29,15.97-2.87,28.36-14.76,29.66-26.51,62.4-26.51,73.87,0,7.78.81,9.54,6.94,14.99,7.2,6.4,10.82,7.58,12.91,4.2.77-1.25,2.02-1.33,3.41-.2,1.2.97,13.61,2.72,27.56,3.87,31.46,2.6,30.82,3.01,31.38-20.04.34-13.82,1.75-20.55,8.59-41.04,7.13-21.35,8.87-24.84,13.53-27.05,4.18-1.98,7.15-2.09,13.56-.47,14.08,3.55,33.16,2.53,49.54-2.64l14.91-4.71.98-15.72c1.55-24.77.29-23.87,33.17-23.87,19.14,0,28.54-.71,30.1-2.26,1.76-1.76,2.77-1.76,4.52,0,1.29,1.29,7.45,2.26,14.32,2.26,10.47,0,12.18-.5,13.04-3.77.85-3.23,2.57-3.77,12.08-3.77,7.54,0,11.14-.76,11.24-2.36.08-1.3.02-7.6-.13-14.01l-.27-11.65,6.25-.6c6.12-.59,6.26-.8,6.82-10.5l.57-9.9h-6.63c-4.69,0-7.22-1.1-8.64-3.75-1.1-2.06-4.22-4.3-6.92-4.98-3.84-.96-5.67-.25-8.33,3.28l-3.41,4.51-108.03-.38c-106.56-.38-108.06-.44-110.61-4.24-3.26-4.87-5.31-4.9-6.84-.09M457.83,67.77c-2.12,2.12-1.29,4.35,1.62,4.35,1.56,0,2.83-.8,2.83-1.77,0-2.38-2.94-4.08-4.45-2.57M569.99,129.61c-.39,12.07,3.19,20.4,10.42,24.18,7,3.67,2.73,5.4-4.59,1.86-6.21-3.01-18.33-20.15-16.43-23.24,1.41-2.28-3.16-9.4-6.04-9.4-8.43,0-17.55,11.22-17.55,21.6,0,6.53,8.06,15.1,16.6,17.66,9.26,2.77,27.25,2.84,36.98.14,10.6-2.94,18.06-11.02,18.06-19.56,0-15.25-9.9-23.62-27.93-23.62h-9.19l-.34,10.37M445.32,247.44c0,1.04.8,1.89,1.77,1.89s2.3-.85,2.94-1.89-.16-1.89-1.77-1.89-2.94.85-2.94,1.89"/>
  <path class="cls-2" d="M82.37,5.31c-1.22,3.84-4.22,5.58-9.62,5.58-4.32,0-9.47,1.96-11.46,4.35-2.63,3.17-6.38,3.89-13.82,2.63-14.44-2.44-18.06,2.57-12.74,17.65,3.55,10.05,3.53,12.58-.11,20.64-9.68,21.38-11.01,22.96-21.41,25.42-14.08,3.33-13.33,9.32,1.45,11.7,15.77,2.54,24.06,8.19,28.85,19.65,5.86,14.01,4.88,23.65-4.26,42.01C17.4,198.87,0,247.37,0,264.35c0,11.52,1.21,14.13,10.28,22.2,10.66,9.49,16.02,11.23,19.12,6.22,1.15-1.85,3-1.97,5.05-.3,1.78,1.44,20.15,4.03,40.82,5.74,46.6,3.85,45.64,4.46,46.48-29.68.5-20.47,2.59-30.44,12.72-60.78,10.56-31.62,13.14-36.78,20.05-40.06,6.18-2.93,10.59-3.09,20.08-.7,20.86,5.26,49.12,3.74,73.37-3.91l22.09-6.98,1.45-23.29c2.29-36.69.44-35.35,49.14-35.35,28.34,0,42.27-1.05,44.58-3.35,2.61-2.61,4.1-2.61,6.7,0,1.91,1.91,11.04,3.35,21.2,3.35,15.5,0,18.04-.73,19.31-5.58,1.25-4.79,3.81-5.58,17.89-5.58,11.16,0,16.5-1.12,16.65-3.49.12-1.92.04-11.26-.19-20.75l-.4-17.26,9.26-.89c9.07-.87,9.28-1.19,10.1-15.55l.85-14.66h-9.82c-6.94,0-10.69-1.63-12.79-5.55-1.63-3.05-6.25-6.37-10.26-7.38-5.69-1.43-8.39-.36-12.34,4.85l-5.05,6.68-160-.56c-157.82-.56-160.05-.65-163.83-6.28-4.83-7.21-7.87-7.25-10.13-.13M38.08,21.2c-3.14,3.14-1.91,6.44,2.4,6.44,2.3,0,4.19-1.18,4.19-2.63,0-3.52-4.36-6.04-6.59-3.81M204.19,112.81c-.58,17.88,4.73,30.21,15.43,35.82,10.37,5.43,4.04,7.99-6.79,2.75-9.2-4.46-27.15-29.85-24.33-34.42,2.09-3.38-4.68-13.92-8.94-13.92-12.49,0-25.99,16.62-25.99,31.99,0,9.67,11.93,22.36,24.59,26.15,13.71,4.11,40.36,4.21,54.77.21,15.7-4.36,26.75-16.32,26.75-28.96,0-22.58-14.66-34.98-41.36-34.98h-13.62l-.5,15.36M19.55,287.32c0,1.54,1.18,2.79,2.63,2.79s3.4-1.26,4.35-2.79c.95-1.54-.23-2.79-2.63-2.79s-4.35,1.26-4.35,2.79"/>
</svg>