<?xml version="1.0" encoding="UTF-8"?>
<svg id="Layer_1" xmlns="http://www.w3.org/2000/svg" version="1.1" viewBox="0 0 434.11 999.05">
  <!-- Generator: Adobe Illustrator 29.7.1, SVG Export Plug-In . SVG Version: 2.1.1 Build 8)  -->
  <defs>
    <style>
      .st0 {
        fill: #fff;
      }
    </style>
  </defs>
  <path class="st0" d="M374.27,0l2,9.01c8.88-2.09,19.07-3.02,24.42,6.07,1.44,2.45,6.16,18.8,6.33,21.67.32,5.25-2.01,10.23-6.42,13.09-8.72,5.66-24.47,2.16-34.88,2.11-5.01-.02-9.97,1.41-15.45.05v106h-155.5c-.21,0-.54.68-1,.77-3.27-.28,2.09-13.38-8.84-9.6-1.38.48-4.02,5.61-5.64,7.35-14.22,15.28-30.06,26.72-50.73,31.77-12.95,20.51-27.5,40.07-39.05,61.44-14.96,130.42-27.08,261-39.25,391.75-1.18,12.7-5.03,28.51-5,41.02,0,2.36,1.9,7.04,3.75,8.52,6.25,4.99,24.28,6.15,30.21,10.52,4.91,3.62.72,12.83-5.43,12.47-17.97-1.77-37.09-1.12-54.9-3.15-6.91-.79-17.5-5.97-18.56-13.44-1.55-10.86,2.85-24.73,1.95-35.92,13.6-132.37,20.14-265.7,33.98-398.02,1.09-10.47.74-21.25,3.49-31.51,2.95-11.03,13.09-24.9,18.69-35.31.94-1.75,5.95-11.22,5.75-12.07-11.01-5.89-20.44-9.61-29.94-18.09-41.08-36.67-40.81-98.18.54-134.49C66.35,4.32,116.69-1.93,152.25,22L165.27,0h209ZM72.19,171.93L144.87,35.02c.7-1.25.29-1.62-.58-2.51s-10.12-5.23-12.03-5.99C50.53-6.09-22.7,96.29,45.37,156.39c3.23,2.86,24.27,17.34,26.82,15.54ZM166.27,149.01c-3.97,1.02-9.4-2.46-12.58-.09-2.96,2.21-8.81,16.48-12.42,20.07.99.95,14.82-9.58,16.47-11.02,3.05-2.65,6.02-5.8,8.53-8.96Z"/>
  <path class="st0" d="M112.49,886.21c9.37-5.77,17.71-14.78,28.26-18.23l267.78.26,25.57,18.43v96.67c-12.01,8.76-26.55,13.89-41.3,15.7h-241.08c-7.09.47-37.51-9.8-39.25-15.75v-97.08Z"/>
  <path class="st0" d="M112.43,224.16c11.48-5.59,23.47-10.5,36.3-12.2h250.07c5.38.3,34.01,8.95,35.3,12.7l-.04,87.64c-8.64,10.2-16.58,21.78-27.32,29.68l-268.82-.14c-8.81-9.82-18.97-18.85-25.61-30.39l.12-87.29Z"/>
  <path class="st0" d="M409.27,351v173H136.27v-173h273ZM267.05,408.28c-37.18,4.11-53.63,50.35-21.11,72.55,18.76,12.81,45.19,11,60.84-5.82,28.46-30.59-2.21-70.89-39.74-66.74ZM157,409.19c-6.19,1.35-11.67,15.17-13.18,20.85-4.04,15.19-3.53,39.05,5.27,52.65s22.9,2.41,30.02-6.36c10.14-12.5,13.41-29.29,6.67-44.33-4.03-9-17.72-25.23-28.77-22.81ZM395.69,414.58c-6.21-7.53-11.91-7.35-19.92-1.58-23.78,17.15-24.64,54.39-.44,71.43,13.66,9.62,21.89,2.2,26.22-11.66,4.82-15.46,4.67-45.41-5.86-58.19Z"/>
  <path class="st0" d="M409.27,693v167H136.27v-167h273ZM268.05,728.28c-29.5,3.25-49.87,32.5-33.58,60.02,13.6,22.97,47.66,26.66,67.81,10.21,34.9-28.49,5.76-74.65-34.24-70.23ZM152.62,731.36c-6.45,5.87-10.78,23.6-11.34,32.16-1.31,19.88,6.72,62.36,34.01,37.01,12.58-11.68,17.45-31.99,10.85-47.89-4.13-9.94-22.02-31.75-33.51-21.27ZM382.99,729.23c-15.26,3.18-26.69,27.69-25.7,42.26.96,14.03,14.38,38.02,30.48,36.55s17.46-37.59,16.48-49.53c-.94-11.46-6.22-32.42-21.26-29.29Z"/>
  <path class="st0" d="M409.27,533v152H136.27v-152h273ZM310.69,587.58c-30.9-44.48-104.78-5.27-75.62,42.12,27.7,45,107.86,4.29,75.62-42.12ZM152.62,571.36c-6.38,5.81-10.92,24.62-11.34,33.15-.85,17.06,4.16,55.47,29.51,39.51,16.8-10.57,22.64-34.87,14.66-52.7-4.28-9.57-21.77-30.03-32.83-19.96ZM396.9,642.66c10.29-13.99,10.05-53.49-.2-67.6-11.96-16.47-31.53,5.36-36.21,17.66-4.08,10.73-4.14,20.18-.51,31.05,4.27,12.78,24.71,35.49,36.91,18.88Z"/>
  <polygon class="st0" points="352.27 167 352.27 202.5 192.27 204 192.27 167 352.27 167"/>
</svg>