<?xml version="1.0" encoding="UTF-8"?>
<svg id="Layer_1" xmlns="http://www.w3.org/2000/svg" version="1.1" viewBox="0 0 764.81 997.04">
  <!-- Generator: Adobe Illustrator 29.7.1, SVG Export Plug-In . SVG Version: 2.1.1 Build 8)  -->
  <defs>
    <style>
      .st0 {
        fill: #fff;
      }
    </style>
  </defs>
  <path class="st0" d="M380.88,0c1.49,3.66,5.57,1.31,8.15,1.56,16.7,1.65,31.27,5.64,47.82,7.95,39.45,5.49,79.71,8.19,118.58,15.43,9.29,1.73,19.39,2.39,27.14,9.37,3.6,3.24,8.7,10.66,7.31,15.69,7.3-2.43,14.55.34,21.79,1.3,15.44,11.31,25.46,30.02,12.67,47.66-9.79,13.51-30.13,12.96-44.77,9.2-10.25,9.84-23.64,16.86-37.94,17.91-1.6,3.23-4.54,1.68-7.76,1.92l.09,21.58-2.1,1.93c-.41,2.29,1.28,1.15,1.75,1.68,1.71,1.95-1.77,4.83-1.73,6.32.08,3.39.08,3.21-.06,6.94-1.35,34.59-.09,69.29-3.94,103.1l1.97.88c-3.94,13.84,2.16,30.68-14.02,38.23l-1.96,77.34c.71.65,15.76,1.65,18.45,2.08,7.06,1.11,7.84,1.98,15.99,1.9.61,0,.47,2.05,2.46,2.6,2.67.73,5.23-.03,7.41.46,23.36,5.23,49.12,14.55,71.43,24.74,76.93,35.13,113.26,98.19,129.8,178.2,14.35,69.4-1.12,157.28-31.8,220.28s-88.24,120.28-152.45,150.52c-63.6,29.95-136.11,35.49-203.67,26.12-63.33-8.78-130.06-32.71-180.98-72.07-1.65-1.28-2.31-3.91-5.11-3.89l-1.02,2.07-2.51-2.99,2.51-1.02-31.18-28.32c-20.69-25.86-39.19-54.97-50.06-87.43-16.41-49.01-10.61-106.5-4.65-157.38.49-4.15.88-10.42,3.38-13.36-5.03-2.1-.14-3.58-.02-4.16,1.76-8.03.66-20.66,2.02-28.74l2-1.07c-4.26-4.6-.2-4.39-.01-5.18,1.49-6.46,1.42-15.48,2.57-21.48,8.09-42.26,23.71-84.56,53.4-116.38,33.65-36.06,70.47-47.67,115.49-58.53,6.36-1.53,12.75-3.35,19.12-4.91l4.42-97.05c-12.33,2.15-25.94-.31-38.49-1-3.09.44-12.49,16.4-15.11,19.89-36.26,48.35-73.47,96.96-106.39,147.4-43.6,66.79-45.74,124.1-51.11,201.09-5.86,83.99-11.17,165.55-15.12,249.1-.7,14.82-4.74,42.53-.48,55.74,3.53,10.95,14.22,7.6,14.76,17.32.42,7.61-5.51,10.73-11.26,13.56-.76.38-.8,1.52-1.27,1.65-11.68,3.25-38.89-5.33-50.49-10.27-19.87-8.46-26.8-23.48-25.8-44.79,1.28-27.17,3.05-55.27,4.36-82.8.72-15.16,3.28-32.01,3.13-47.62-.02-2.25-1.94-3.12-1.7-5.29l2,.51.19-23.78c5.76-77.61,9.63-155.59,12.74-234.27.08-1.97,1.65-3.21,1.7-3.97.07-1.08-1.71-2.44-1.7-3.95,0-.49,1.93-.43,2.09-1.17.39-1.84-.74-3.82-.66-5.69,1.74-42.39,25.91-80.05,43.02-117.77,9.01-19.86,16.92-41.33,26.89-60.14.66-1.25.61-3.12,1.72-4.3-5.7-2.21.61-2.63,1.05-3.08,1.45-1.49,1.23-4.19,2.03-5.7.66-1.26,6.28-10.13,5.93-10.63-6-.76-9.51-5.07-13.75-8.01-1.47-1.02-3.56-1.35-5.2-2.59-2.18-1.65-8.09-8.56-9.3-9.18-1.63-.84-4.23.55-5.75-1.77-1.65-2.52,3.57.56,1.98-1.97-1.42-2.27-4.97-3.81-5.1-7.41l-1.88.9c-1.81-7-8.3-12.66-11.89-18.84-.42-.72-.08-2.31-.6-3.25l-2.52.09c2.49-5.65-.51-4.33-1.31-6.22-17.1-40.16-17.94-92.34-7.29-132.76,8.6-32.65,24.71-61.37,45.88-86.73l11.71-10.8-3.99-2.49c8.69,1.07,15.52-6.87,22.95-10.55,10.64-5.27,18.58-7.07,30.3-8.7,14.27-1.98,25.98-.66,39.64,5.85,11.24,5.35,18.22,12.58,26.12,21.88.49.57,4.35,8.21,5.98,6.51-.49-3.75,3.07-6.94,3.6-9.95.24-1.38-.8-3.82-.6-4.03.13-.13,2.28-.02,3.54-.96,1.69-1.25,5.73-6.97,8.23-9.07,18.63-15.63,55.84-17.26,80.45-21.28,20.23-3.31,36.41-7.01,57.45-8.35,2.6-.17,6.72,2.44,8.33-1.38h1ZM189.27,58.62c-43.59-41.46-92.02,10.61-111.57,49.7-9.07,18.13-13.36,40.06-18.71,58.11-5.38,44.42,1.5,103.71,38.24,134.22,4.5,3.74,9.28,6.24,14.21,9.3,2.07.42,1.14-.31,1.53-1.33,16.68-43.36,36.87-85.29,53.82-126.4,3.12-7.55,5.4-15.43,9.08-22.76l-1.99-2.45,2.98,1c.09-1.03-.3-2.34.05-3.26,5.81-15.63,15.66-32.62,21.88-47.52,2.73-6.55,4.63-13.56,7.86-19.91-1.36-2.62-1.6-6.6-2.67-8.93s-7.08-12.35-8.67-14.32c-1.18-1.46-4.44-3.91-6.05-5.44Z"/>
</svg>