<?xml version="1.0" encoding="UTF-8"?>
<svg id="Layer_1" xmlns="http://www.w3.org/2000/svg" version="1.1" viewBox="0 0 479.37 1000">
  <!-- Generator: Adobe Illustrator 29.7.1, SVG Export Plug-In . SVG Version: 2.1.1 Build 8)  -->
  <defs>
    <style>
      .st0 {
        fill: #fff;
      }
    </style>
  </defs>
  <path class="st0" d="M249.37,1000c-28.12-3.04-56.99-2.85-85.49-5.01-13.76-1.04-39.77-1.68-51.19-7.81-5.41-2.91-7.32-6.24-8.88-12.14,3.7-231.35-3.54-462.98.68-694.42,2.07-11.57,5.54-15.9,17.38-17.62,16.76-2.43,36.94-1.47,54.04-1.96,73.05-2.11,145.95-2.69,218.92,0,21.46.79,44.81.23,66.03,2.97,9.67,1.25,14.4,1.6,15.5,12.5,1.39,13.77.57,29.12.97,43.03,3.89,135.08,1.03,272.56.99,408.01-.02,78.1,1.01,156.67-.01,235.01-.08,6.12-.39,3.07-.88,5.17-1.53,6.52.77,10.65-3.63,16.21-8.62,10.87-29.82,10.95-42.94,12.06-22.57,1.9-45.41,2.22-68.07,2.97-1.29.04-2.29,1.04-2.42,1.04h-111ZM302.36,390.01c-1.45-.25-2.58.08-3.93.56-1.92.68-9.82,6.46-11.97,8.03-49.94,36.3-56.58,98.48-45.8,155.62,3.7,19.62,6.76,37.62,3.47,58.06-1.08,6.68-4.42,12.51-6.78,18.73-1.45,1.42-1.81-.09-1.99-1.48-.76-5.93,1.1-12.02,1.05-18.07-.18-22.99-6.43-55.04-24.83-70.39-2.29-1.91-15-10.08-17.21-8.05,8.05,16.02,9.12,30.75,5.73,48.22-7.96,40.97-36.02,67.19-35.77,114.22.28,51.84,47.67,93.29,96.62,101.46,1.35.23,3.91.94,3.41-1.41-9.87-6.09-18.86-13.29-24.18-23.83-16.98-33.61,8.89-58.79,10.23-91.14.22-5.22.04-10.42-1.04-15.54,12.54,5.36,16.4,21.52,17,34,1.3,1.38,9.19-5.94,10.65-7.35,20.68-20.11,29.36-48.32,21.36-76.65,10.43,8.33,17.51,20.52,19.74,33.75,4.17,24.75-12.6,44.1-1.93,68.93.89,2.07,7.4,13.97,10.17,11.32-1.38-15.05-3.98-34.13,6.99-45.99.74,30.73,29.28,51.31,21.9,83.39-.66,2.85-3.5,10.55-5.04,12.96s-9.61,7.86-7.85,9.64c36.3-8.43,67.41-35.55,75.7-72.79,2.96-13.31,3.26-31.98,2.28-45.69-4.06-56.98-43.67-91.89-31.73-154.76,1.21-6.39,4.18-12.49,4.74-18.75-1.8-1.91-16.84,10.57-19.01,12.48-17.12,15.03-29.29,36.11-31.86,59.14-.42,3.77.04,7.61-.13,11.38-42.33-44.43-66.73-105.62-48.49-167,2.35-7.91,6.13-15.13,8.49-23Z"/>
  <path class="st0" d="M372.37,0c3.85,2.91,9.02.89,13,3.52,4.95,3.28,4.95,11.78,6.98,13,13.44.99,20.36-2.06,25.52,12.48,3.88,10.94,9.28,29.05-2.8,36.21-6.5,3.86-21.34,4.39-29.22,4.78-7.12.35-14.35-.6-21.4.1l-.2,116.8-168.89.1c1.37-4.3,2.05-12.67-2.05-15.45-4.97-3.38-24.19-.7-31.29-2.58-1.39.34-6.83,14.57-8.23,16.97-13.4,23.06-35.91,47.66-50.86,71.14-28.73,45.12-23.79,80.51-27.59,131.41-7.62,101.97-15.74,204-23.97,306.03-1.54,19.15-.48,44.78-4.1,62.9-2.04,10.18-15.5,16.65-16.77,21.31-.82,3.03,2.68,8.16,2.9,11.81,1.06,17.35-31.05,12.88-33.07-4-1.27-10.64,1.36-20.17,2.01-30.04,8.79-132.77,17.2-265.36,27-398,3.25-44,.02-71.75,21.84-112.16,4.37-8.09,9.87-15.68,14.18-23.82-15.92-8.17-30.53-20.71-39.81-36.21C-22.29,106.43,48.13-17.51,146.13,20.91c3.5,1.37,7.14,2.53,10.61,4.03,6.17-8.81,7.08-19.65,18.64-23.27,1.89-.59,5.14.91,7-1.67h190ZM82,189.65c23.07-47.14,43.59-95.67,66.68-142.83.59-1.79,1.29-4.11.21-5.84-.46-.73-12.99-7.65-14.73-8.28-26.82-9.63-57.21.95-77.32,19.27-39.06,35.56-41.83,112.69-.44,147.47,4.05,3.4,9.45,6.41,13.93,9.14,3.75.62,8.26-14.25,9.76-17.33.53-1.09,1.74-1.26,1.91-1.61Z"/>
  <polygon class="st0" points="356.12 198.24 356.37 247.01 200.36 247.01 197.36 198 356.12 198.24"/>
</svg>