<?xml version="1.0" encoding="UTF-8"?>
<svg id="Layer_1" xmlns="http://www.w3.org/2000/svg" version="1.1" viewBox="0 0 593.68 999.38">
  <!-- Generator: Adobe Illustrator 29.7.1, SVG Export Plug-In . SVG Version: 2.1.1 Build 8)  -->
  <defs>
    <style>
      .st0 {
        fill: #fff;
      }
    </style>
  </defs>
  <path class="st0" d="M207.63,999.38c-44.93-5.6-90.47-19.48-131.99-38.51C49.86,949.05.97,927.18.02,894.71c-.63-21.64,18.48-63.65,26.11-85.33,39.34-111.71,80.16-225.48,121.42-336.78,14.26-38.47,25.5-86.96,56.44-114.87,22.69-20.47,51.74-26.12,65.34-55.9,22.44-49.16,43.09-98.38,66.44-146.83,3.42-7.11,12.08-20.06,12.88-27.12.69-6.12-1.08-13.31.67-19.33,2.48-8.52,12.46-23.01,16.53-32.47,3.96-9.22,1.11-12.49,12.11-17.89,2.48-1.22,6.18-.94,8.16-2.84,1.83-1.76,3.61-8.96,5.13-11.87,27.83-53.02,88.42-57.98,126.36-12.58,38.03,45.51,49.91,126.37,47.07,184.01-2.77,56.21-20.64,114.23-12.92,169.84,5.05,36.39,20.23,72.56,38.04,103.96,1.42,2.51,4.71,3.28,3.7,6.94-1.25,4.54-15.26,11.93-20.01,13.06-24.06,5.74-44.33-2.92-65.32,13.68-2.52,1.99-4.53,5.01-7.05,6.95-13.09,10.02-29.2,16.58-45.82,17.07-.37-.09-3.21-6.07-3.39-6.81-7.8-31.22,6.51-69.33,8.7-100.72-1.58-15.26-6.17-30.2-8.85-45.12-10.99-60.99,6.09-131.41,20.99-190.79,8.59-34.21,24.5-70.82,18.8-107-.87-5.54-4.87-20.19-10.84-22.18-6.49-2.16-11.25,5.13-11,10.99.23,5.27,6.08,10.63,5.97,17.03-.05,2.8-1.6,6.24-1.91,9.17-1.04,9.94-1.41,33.01-6.71,40.29-3.3,4.53-10.1,7.82-12.86,11.14-3.72,4.48-9.76,41.88-11.66,50.34-9.2,40.93-19.15,83.52-28.87,123.3-2.57,10.53-4.93,32.17-4.01,42.79,1.76,20.3,16.17,42.68,19.03,62.97,5.79,40.94-16,84.56-29.1,122-44.07,126.03-87.46,252.88-133.66,378.34-7.11,19.32-13.14,44.11-32.23,53.74l-16.06,3.47h-10ZM184.63,567.38v14.5c0,16.85-28.79,41.27-38.94,53.3-31.2,36.98-30.81,74.72,4.93,108.71,1.93,1.83,16.36,14.08,18.01,12.48-1.74-4.95-5.5-8.05-7.28-13.21-10.12-29.47,11.1-37.46,22.18-57.61,2.91-5.28,4.09-12.6,6.62-17.15,1.29-2.33,2.23.63,2.84,2.12,3.16,7.75,1.64,14.91.65,22.85,20.16-4.91,34.06-18.96,39.56-38.93.73-2.67-.86-7.85,2.42-7.06,3.43,8.11,5.05,16.35,3.4,25.12-3.17,16.88-19.69,27.23-17.41,46.4.17,1.44,2.89,10.53,5.02,8.46,1.09-10.98,5.19-21.9,14-28.99-4.55,16.48,4.04,34.69-.97,50.52-2.8,8.85-7.43,18.99-18.02,19.49-.43,3.14,3.34,2.86,5.53,2.95,50.75,2.14,76.15-39.77,78.51-85.41.96-18.47-3.08-36.28.57-54.67,3-15.17,9.56-28.8,18.4-41.36-18.98.94-35.75,13.12-46.99,28.01l-7.01,14.47c-12.69-34.75-17.39-68.65-2.18-103.66,5.27-12.14,12-18.36,19.68-28.32.77-1,1.94-1.27,1.49-3-43.3,4.06-69.21,42.96-77.5,82.44-4.37,20.81-3.71,41.32-19.53,58.08-.74.78-.86,2.35-.99,2.47-4.54,4.02,1.11-7.66,1.3-8.21,5.87-16.82,11.51-39.86,1.55-56.12-1.06-1.73-7.87-10.69-9.84-8.66Z"/>
</svg>